<svg xmlns="http://www.w3.org/2000/svg" viewBox="0 0 84.48 100"><path d="M83.15 38.75a1.71 1.71 0 0 0-.41-.83L50.12.71a1.79 1.79 0 0 0-2.3-.48 73.47 73.47 0 0 0-11.16 6.56q-2.74-1-5.67-1.86c-2.19-.62-4.49-1.15-6.88-1.6a1.8 1.8 0 0 0-1.53.38C10.21 14.26 3.14 26.76.84 39.25a48.6 48.6 0 0 0 10.94 40.82C20 89.71 32.35 97 48.29 100a1.74 1.74 0 0 0 1.16-.12C62.91 93.43 72.5 84.28 78.2 74a48.74 48.74 0 0 0 4.95-35.25zm-8 33.51c-5.25 9.5-14.06 18-26.41 24C35.21 89.68 26 80.19 20.93 69.62a45.09 45.09 0 0 1 0-39.24c5.42-11.41 15-20 26-25.76v34.46a1.77 1.77 0 0 0 1.77 1.77H80a45.41 45.41 0 0 1-4.89 31.41z" fill="#33ca65"/><path d="M66.24 73H31.1a1.77 1.77 0 1 0 0 3.54h35.14a1.77 1.77 0 0 0 0-3.54zM70.68 66H26.73a1.77 1.77 0 1 0 0 3.53h44a1.77 1.77 0 1 0 0-3.53zM73.46 59.05H24a1.77 1.77 0 1 0 0 3.54h49.46a1.77 1.77 0 1 0 0-3.54zM74.81 52.07H22.64a1.77 1.77 0 0 0 0 3.54h52.17a1.77 1.77 0 0 0 0-3.54zM74.83 45.09H22.58a1.77 1.77 0 1 0 0 3.54h52.25a1.77 1.77 0 0 0 0-3.54zM23.8 41.65h17.11a1.77 1.77 0 1 0 0-3.54H23.8a1.77 1.77 0 0 0 0 3.54z" fill="#333"/></svg>