<svg xmlns="http://www.w3.org/2000/svg" viewBox="0 0 545.98 517.49"><g><g><path d="M460 45.59L280.2 499.31c6.16.4 12.36.62 18.62.62a282.76 282.76 0 0 0 97.92-17.38 271.94 271.94 0 0 1-113.41 24.61q-3.12 0-6.21-.08L273 517.49c150.76 0 273-122.22 273-273a272.19 272.19 0 0 0-86-198.9zM10.33 234.16a272.73 272.73 0 0 1 12.53-81.92 283.78 283.78 0 0 0-7.37 64.36c0 145.12 109.11 264.74 249.76 281.34L86 45.58A272.19 272.19 0 0 0 0 244.49c0 150.78 122.22 273 273 273l-4.25-10.72c-144-7.57-258.42-126.72-258.42-272.61zM361.61 92.54L385.7 53.4a13.56 13.56 0 0 0 0-14.26L361.61 0l-72.9 27.68h-31.43L184.38 0l-24.09 39.14a13.61 13.61 0 0 0 0 14.26l24.09 39.14 72.9-26.76h33.87z" fill="#1d1d1b"/><circle cx="273" cy="155.78" r="14.2" transform="rotate(-85.93 273.014 155.77)" fill="#1d1d1b"/><circle cx="273" cy="269.08" r="14.2" transform="rotate(-67.5 272.995 269.077)" fill="#1d1d1b"/><circle cx="273" cy="382.38" r="14.2" transform="rotate(-9.22 272.937 382.25)" fill="#1d1d1b"/><path d="M15.49 216.6a283.78 283.78 0 0 1 7.37-64.36 272.73 272.73 0 0 0-12.53 81.92c0 145.89 114.42 265 258.42 272.61l-3.5-8.83C124.6 481.34 15.49 361.72 15.49 216.6z" fill="#1d1d1b"/><path d="M15.49 216.6a283.78 283.78 0 0 1 7.37-64.36 272.73 272.73 0 0 0-12.53 81.92c0 145.89 114.42 265 258.42 272.61l-3.5-8.83C124.6 481.34 15.49 361.72 15.49 216.6z" fill="#fff" opacity=".03"/><path d="M283.33 507.16a271.94 271.94 0 0 0 113.41-24.61 282.76 282.76 0 0 1-97.92 17.38c-6.26 0-12.46-.22-18.62-.62l-3.08 7.77q3.09.08 6.21.08z" fill="#1d1d1b"/><path d="M283.33 507.16a271.94 271.94 0 0 0 113.41-24.61 282.76 282.76 0 0 1-97.92 17.38c-6.26 0-12.46-.22-18.62-.62l-3.08 7.77q3.09.08 6.21.08z" fill="#fff" opacity=".03"/></g></g></svg>