<svg xmlns="http://www.w3.org/2000/svg" viewBox="0 0 82.42 100"><path d="M72.71 35.66a8.85 8.85 0 0 1 6.23 1.23 9.68 9.68 0 0 1 3.48 4.86 16.93 16.93 0 0 0-9.71-6.09z" fill="#cb0000" fill-rule="evenodd"/><path d="M63.51 29.75a3 3 0 0 1 .14 2.25l-5.79 16.56v-3.61l-.2-17.61a2.94 2.94 0 0 0-1-2.13L40.53 10.4a2.94 2.94 0 0 0-1.91-.78L32 9.45l8.63-2.94a2.93 2.93 0 0 1 2 0l10.61 4A2.92 2.92 0 0 1 54.81 12z" fill="#e85d00" fill-rule="evenodd"/><path d="M22 14.89h-.1z" fill="#333" fill-rule="evenodd"/><path d="M9.45 68.91l10.08 23.64c-3.89.37-7.42-1.29-10.19-7.42z" fill="#007edb" fill-rule="evenodd"/><path d="M4.09 57.79l2.83 5 .11 16q-12.39-4.79-2.94-21z" fill="#e85d00" fill-rule="evenodd"/><path d="M55.12 45L43.93 22.39a2.92 2.92 0 0 0-1.79-1.51l-17.2-5.13a23.48 23.48 0 0 0-2.9-.86h-.09l3.86-2.39a2.87 2.87 0 0 1 1.64-.5l10.08.26a3 3 0 0 1 1.93.78L54 26.39a3 3 0 0 1 1 2.16z" fill="#007edb" fill-rule="evenodd"/><path d="M22 14.89h-.1z" fill="#333" fill-rule="evenodd"/><path d="M17.09 26.82a.81.81 0 0 0 .65.32h.06a.8.8 0 0 0 .21-.05h-.13a1.23 1.23 0 0 1-.79-.27zm1.35-2.17a46.29 46.29 0 0 0-1.18-6.57l-1.52.75a43.64 43.64 0 0 1 1.07 6.27 1.29 1.29 0 0 1 1.07-.58 1.32 1.32 0 0 1 .56.13z" fill="#cb0000" fill-rule="evenodd"/><path d="M76.64 39.64c-12 21.26-32.18 31.3-57.7 22.1 15.75.89 26.85-2.48 34.51-9a3 3 0 0 0 .72-3.57L42.05 24.65a3 3 0 0 0-1.82-1.53l-18.12-5.4a3 3 0 0 0-2.11.18l-1.48.74c.35 1.49.62 3 .82 4.46a3.36 3.36 0 0 1 .6.41 3.05 3.05 0 0 1-1.82 5.35 3.17 3.17 0 0 1-1.39-.24 3.06 3.06 0 0 1-1.6-4 2.94 2.94 0 0 1 .51-.8c-.15-1.13-.35-2.28-.6-3.43l-2.57 1.28-3.38 1.61-.58.28A3 3 0 0 0 7 25.36L1.58 43.24a3 3 0 0 0 .14 2.1l24 52.31c2.54 2.32 5.67 2.67 9 2.13l30.54-15.3c1.69-2.08 2-5 1.26-8.5L61.9 64.72C72.47 56.36 77.75 48 76.64 39.64z" fill="#cb0000" fill-rule="evenodd"/><path fill="#333" d="M12.45 21.61v.01l-3.36 1.66 3.36-1.67z"/><path d="M18.57 26.26a.82.82 0 0 1-.55.83.8.8 0 0 1-.21.05h-.06a.81.81 0 0 1-.65-.32.89.89 0 0 1-.18-.46c0-.42-.06-.84-.1-1.26a43.64 43.64 0 0 0-1.07-6.27C13.55 9.88 9 2.8 6.51 1.75c-.42-.17-.54-.06-.58 0S4.51 3.28 6.85 12A38.6 38.6 0 0 0 11 21.19l-1.49.74a39.77 39.77 0 0 1-4.23-9.48C3.45 5.73 3.31 1.81 4.83.48A2.09 2.09 0 0 1 7.14.22c2 .85 4.69 4.27 6.91 8.92a47.83 47.83 0 0 1 3.21 8.94 46.29 46.29 0 0 1 1.18 6.57c.05.54.1 1.07.13 1.61z" fill="#333"/></svg>